# xmcd
#
# Track frame offsets: 
#        150
#        25503
#        51381
#        70589
#        98807
#        123880
#        148176
#        175569
#        203542
#        224752
#        248423
#        268213
#
# Disc length: 3847 seconds
#
# Revision: 4
# Processed by: cddbd v1.5.2PL0 Copyright (c) Steve Scherf et al.
# Submitted via: ExactAudioCopy v0.99pb5
#
DISCID=a70f050c
DTITLE=Glenn Hughes - Blues
DYEAR=1992
DGENRE=Hard Rock
TTITLE0=The Boy Can Sing the Blues
TTITLE1=I'm the Man
TTITLE2=Here Come the Rebel
TTITLE3=What Can I Do for Ya?
TTITLE4=You Don't Have to Save Me Anymore
TTITLE5=So Much Love to Give
TTITLE6=Shake the Ground
TTITLE7=Hey Buddy (You Got Me Wrong)
TTITLE8=Have You Read the Book?
TTITLE9=Life of Misery
TTITLE10=Can't Take Away My Pride
TTITLE11=A Right to Live
EXTD=
EXTT0=
EXTT1=
EXTT2=
EXTT3=
EXTT4=
EXTT5=
EXTT6=
EXTT7=
EXTT8=
EXTT9=
EXTT10=
EXTT11=
PLAYORDER=
